<svg id="Layer_1" data-name="Layer 1" xmlns="http://www.w3.org/2000/svg" viewBox="0 0 72 72"><defs><style>.cls-1{fill:#fff;}</style></defs><title>Artboard 1 copy 3</title><rect x="7.5" y="7.5" width="57" height="57" rx="12"/><path class="cls-1" d="M26.19,35a9.33,9.33,0,0,0,.06,1.07H16.71a2.31,2.31,0,0,1-2.07,1.27,2.35,2.35,0,0,1,0-4.69A2.31,2.31,0,0,1,16.71,34h9.54A9.38,9.38,0,0,0,26.19,35Z"/><path class="cls-1" d="M40.85,56.72a2.35,2.35,0,1,1-4.69,0,2.29,2.29,0,0,1,1.27-2.06V47.29a9.77,9.77,0,0,0,1.08.06,9.33,9.33,0,0,0,1.07-.06v7.37A2.29,2.29,0,0,1,40.85,56.72Z"/><path class="cls-1" d="M40.85,13.35a2.32,2.32,0,0,1-1.27,2.07v7.36a9.33,9.33,0,0,0-1.07-.06,9.77,9.77,0,0,0-1.08.06V15.42a2.32,2.32,0,0,1-1.27-2.07,2.35,2.35,0,1,1,4.69,0Z"/><path class="cls-1" d="M30.56,44.43l-5.77,5.83c-.05.05-.07.07-.11.07Z"/><path class="cls-1" d="M51.06,24l-3.12,3.12a13,13,0,0,0-1.53-1.53l3.12-3.12a1.07,1.07,0,0,1,1.53,0A1.11,1.11,0,0,1,51.06,24Z"/><path class="cls-1" d="M53.88,50.41a2.31,2.31,0,0,1-3.31,0A2.22,2.22,0,0,1,50,48.07l-3.6-3.6a13,13,0,0,0,1.53-1.53l3.57,3.57a2.43,2.43,0,0,1,2.37.59A2.31,2.31,0,0,1,53.88,50.41Z"/><path class="cls-1" d="M30.56,44.43l-5.88,5.9L13.37,61.7a1.16,1.16,0,0,1-.77.3,1.2,1.2,0,0,1-.76-.3,1.07,1.07,0,0,1,0-1.53L23.26,48.73l5.79-5.79A11.19,11.19,0,0,0,30.56,44.43Z"/><polygon class="cls-1" points="29.05 42.94 23.26 48.73 29.03 42.92 29.05 42.94"/><path class="cls-1" d="M30.58,25.6a13.82,13.82,0,0,0-1.53,1.53L24.92,23a2.35,2.35,0,0,1-2.35-3.9,2.36,2.36,0,0,1,3.32,0,2.29,2.29,0,0,1,.56,2.37Z"/><circle class="cls-1" cx="38.4" cy="35.04" r="8.61"/></svg>